<?xml version="1.0" encoding="utf-8" ?>
<svg baseProfile="full" height="140" version="1.1" viewBox="0 0 200 140" width="200" xmlns="http://www.w3.org/2000/svg" xmlns:ev="http://www.w3.org/2001/xml-events" xmlns:xlink="http://www.w3.org/1999/xlink"><defs /><g fill="#fff" fill-rule="evenodd" stroke="none"><path d="M 70 27 L 63 35 L 62 38 L 60 40 L 58 44 L 58 46 L 57 47 L 57 49 L 55 53 L 55 57 L 54 58 L 54 67 L 53 68 L 53 71 L 54 72 L 54 80 L 55 81 L 56 88 L 57 89 L 58 94 L 61 99 L 61 101 L 63 103 L 64 106 L 66 108 L 68 112 L 71 115 L 71 116 L 73 117 L 77 122 L 78 122 L 81 125 L 82 125 L 87 129 L 89 129 L 93 132 L 96 132 L 100 134 L 114 135 L 115 134 L 120 134 L 121 133 L 124 133 L 127 131 L 129 131 L 133 129 L 131 129 L 130 128 L 126 128 L 125 127 L 122 127 L 121 126 L 115 125 L 100 117 L 88 105 L 88 104 L 86 102 L 85 99 L 83 97 L 83 95 L 81 92 L 80 86 L 79 85 L 79 81 L 78 80 L 78 66 L 79 65 L 79 60 L 80 59 L 82 51 L 85 45 L 90 39 L 90 38 L 98 31 L 107 26 L 109 26 L 107 25 L 102 25 L 101 24 L 80 24 L 79 25 L 75 25 L 74 26 Z M 82 16 Z M 84 15 L 87 15 L 88 14 L 108 14 L 109 15 L 114 15 L 115 16 L 118 16 L 119 17 L 127 19 L 137 24 L 139 26 L 146 30 L 158 42 L 158 43 L 162 47 L 162 48 L 166 53 L 163 47 L 162 42 L 160 38 L 154 30 L 154 29 L 143 18 L 142 18 L 139 15 L 138 15 L 133 11 L 129 10 L 127 8 L 125 8 L 121 6 L 112 6 L 111 7 L 105 7 L 104 8 L 101 8 L 97 10 L 94 10 Z M 105 3 L 89 4 L 88 5 L 85 5 L 84 6 L 76 8 L 68 12 L 66 14 L 62 16 L 59 19 L 58 19 L 46 32 L 43 38 L 41 40 L 41 42 L 38 47 L 37 53 L 36 54 L 36 58 L 35 59 L 35 68 L 34 69 L 34 71 L 35 72 L 34 74 L 35 76 L 35 82 L 36 83 L 36 87 L 37 88 L 38 93 L 40 96 L 40 98 L 43 104 L 48 110 L 48 111 L 52 115 L 52 116 L 53 116 L 56 120 L 57 120 L 61 124 L 62 124 L 67 128 L 75 132 L 77 132 L 78 133 L 80 133 L 84 135 L 87 135 L 88 136 L 92 136 L 93 137 L 95 137 L 90 136 L 87 134 L 82 133 L 78 131 L 70 125 L 69 125 L 56 112 L 56 111 L 53 108 L 51 103 L 49 101 L 49 99 L 47 96 L 47 94 L 46 93 L 46 91 L 44 87 L 42 69 L 43 68 L 43 59 L 44 58 L 44 54 L 45 53 L 47 45 L 52 35 L 57 29 L 57 28 L 68 17 L 69 17 L 75 12 L 85 7 L 87 7 L 91 5 L 99 4 L 100 3 Z" /></g></svg>